<?xml version="1.0" standalone="no"?>
<!DOCTYPE svg PUBLIC "-//W3C//DTD SVG 20010904//EN"
 "http://www.w3.org/TR/2001/REC-SVG-20010904/DTD/svg10.dtd">
<svg version="1.0" xmlns="http://www.w3.org/2000/svg"
 width="1280.000000pt" height="640.000000pt" viewBox="0 0 1280.000000 640.000000"
 preserveAspectRatio="xMidYMid meet">
<metadata>
Created by potrace 1.15, written by Peter Selinger 2001-2017
</metadata>
<g transform="translate(0.000000,640.000000) scale(0.100000,-0.100000)"
fill="#000000" stroke="none">
<path d="M6055 5080 c-12 -4 -54 -10 -95 -13 -130 -8 -311 -93 -729 -345 -308
-184 -556 -324 -925 -522 -196 -105 -263 -136 -315 -146 -128 -25 -489 -74
-811 -109 -179 -20 -422 -47 -541 -60 -119 -14 -341 -32 -495 -40 -288 -16
-375 -25 -504 -52 -195 -41 -351 -124 -600 -318 -163 -126 -205 -151 -670
-394 -168 -88 -222 -124 -273 -180 -48 -53 -66 -89 -83 -169 -16 -77 -19 -375
-5 -463 38 -232 276 -366 726 -408 61 -6 186 -32 320 -66 339 -86 627 -146
641 -133 2 2 -5 28 -16 56 -29 76 -42 142 -31 156 5 6 11 155 14 331 4 286 7
328 26 399 12 44 23 82 26 84 8 8 6 -7 -9 -67 -42 -163 -40 -369 5 -533 75
-271 283 -522 537 -648 169 -83 302 -114 497 -115 194 0 336 35 495 122 560
305 721 1030 344 1559 -302 425 -882 555 -1353 304 -42 -23 -67 -34 -56 -25
55 46 234 122 352 151 93 23 310 22 418 -1 334 -71 595 -267 740 -555 98 -195
116 -304 124 -735 l6 -340 30 -15 c47 -23 199 -24 795 -1 992 39 1072 41 1540
46 256 3 494 10 530 15 59 9 881 31 1670 45 173 3 343 8 377 11 l61 5 -5 97
c-6 106 11 440 27 539 47 289 215 573 443 747 547 417 1320 234 1649 -390 108
-204 128 -306 135 -672 5 -230 8 -285 20 -289 28 -11 598 43 833 78 145 22
311 53 375 70 22 6 99 19 170 29 150 20 196 38 236 93 68 94 87 233 91 657 l3
345 -31 65 c-37 78 -185 252 -305 361 -351 316 -722 495 -1356 653 -339 85
-431 104 -533 111 -52 4 -167 15 -255 25 -378 45 -509 48 -674 14 -86 -18
-151 -45 -270 -114 -152 -88 -311 -142 -566 -194 -44 -9 -120 -25 -170 -36
-94 -20 -487 -70 -556 -70 -24 0 -39 5 -39 13 -1 6 -9 138 -19 293 -19 294
-24 317 -75 372 -80 89 -223 62 -283 -52 -23 -43 -59 -517 -44 -575 7 -24 10
-45 9 -47 -2 -1 -388 -7 -858 -13 -470 -6 -937 -13 -1038 -15 -111 -3 -180 -1
-177 5 4 5 15 9 25 9 39 0 62 71 61 186 0 91 -18 149 -47 163 -31 14 -114 14
-173 0 -31 -7 -47 -6 -57 2 -21 18 -18 23 32 47 60 29 194 115 384 247 85 58
184 123 220 142 128 70 160 94 160 117 0 42 -31 131 -52 149 -22 19 -24 19
-53 7z m-715 -719 c0 -5 -20 -21 -44 -35 -24 -14 -59 -43 -78 -64 -18 -21 -55
-49 -82 -62 -39 -18 -52 -32 -68 -68 -26 -57 -14 -86 45 -112 l42 -20 -225 1
c-204 0 -223 1 -205 15 42 32 256 165 415 257 154 90 200 110 200 88z m32
-350 c62 -8 61 -8 -37 -9 -90 -1 -98 0 -81 13 11 8 28 13 38 9 9 -3 46 -9 80
-13z m-2432 -798 c294 -70 541 -321 620 -628 75 -290 -1 -589 -203 -801 -114
-121 -240 -195 -402 -237 -111 -28 -308 -28 -417 1 -179 48 -310 125 -432 252
-337 353 -298 896 86 1227 121 104 291 181 449 203 81 11 215 4 299 -17z
m-930 -57 c0 -3 -4 -8 -10 -11 -5 -3 -10 -1 -10 4 0 6 5 11 10 11 6 0 10 -2
10 -4z m-56 -61 c-9 -14 -19 -23 -22 -20 -5 4 26 45 35 45 2 0 -4 -11 -13 -25z"/>
<path d="M2585 3156 c-313 -63 -540 -272 -615 -569 -118 -470 154 -920 612
-1013 112 -23 297 -15 388 16 145 49 268 131 357 239 72 87 115 166 154 281
31 90 33 102 33 250 1 133 -3 166 -22 235 -78 273 -255 459 -512 540 -105 33
-285 43 -395 21z m230 -286 c0 -91 -3 -177 -8 -193 -18 -66 -84 -88 -127 -42
-20 21 -25 46 -44 210 -12 102 -20 188 -17 191 3 2 48 3 101 2 l95 -3 0 -165z
m-231 111 c3 -26 2 -81 -4 -122 -27 -189 -130 -233 -347 -147 -29 11 -53 23
-53 26 0 17 85 113 131 149 55 42 234 142 255 143 6 0 14 -22 18 -49z m370 25
c88 -31 167 -80 231 -142 47 -45 95 -108 95 -125 0 -9 -94 -46 -153 -60 -64
-16 -137 -7 -176 20 -58 42 -101 163 -101 289 0 51 9 53 104 18z m-645 -396
c150 -51 186 -70 210 -112 30 -53 -17 -108 -94 -108 -22 0 -332 95 -344 106
-1 1 9 39 24 83 19 59 31 81 43 81 9 -1 82 -23 161 -50z m1047 0 c13 -25 24
-60 26 -79 l3 -34 -160 -53 c-88 -30 -170 -54 -182 -54 -36 0 -73 22 -89 52
-13 25 -13 32 1 61 8 18 25 38 37 46 34 21 300 110 322 108 13 -1 28 -19 42
-47z m-1171 -190 c133 -61 185 -124 185 -223 0 -44 -8 -70 -40 -133 -22 -44
-50 -92 -63 -109 l-25 -29 -46 71 c-85 131 -116 232 -116 373 0 105 -7 101
105 50z m1202 -62 c-6 -110 -24 -183 -64 -263 -31 -62 -96 -165 -104 -165 -13
0 -93 134 -111 184 -34 100 -20 165 53 232 39 36 71 54 179 102 52 23 54 20
47 -90z m-777 -165 c18 -22 21 -37 17 -75 -3 -41 -17 -64 -109 -186 l-106
-139 -66 48 c-36 27 -66 51 -66 53 0 5 205 278 229 304 29 31 74 29 101 -5z
m361 12 c19 -10 40 -38 63 -83 19 -37 59 -102 90 -145 31 -42 56 -81 56 -86 0
-5 -19 -21 -42 -36 -24 -15 -52 -36 -64 -47 -21 -18 -21 -18 -61 34 -22 29
-69 92 -106 140 -71 95 -87 139 -67 188 21 51 73 65 131 35z m-127 -279 c42
-25 166 -147 166 -164 0 -33 -366 -50 -477 -23 -29 7 -53 15 -53 18 0 12 74
104 107 134 84 73 171 85 257 35z"/>
<path d="M9774 3426 c-427 -70 -763 -372 -869 -781 -159 -612 234 -1207 865
-1310 336 -54 667 53 909 295 259 259 361 627 276 993 -81 349 -343 644 -675
759 -145 50 -356 69 -506 44z m372 -216 c266 -68 481 -268 584 -544 67 -179
67 -423 0 -605 -93 -249 -310 -442 -575 -512 -103 -28 -295 -30 -403 -6 -455
103 -749 531 -666 968 72 382 399 685 779 723 69 6 207 -5 281 -24z"/>
<path d="M9825 3163 c-230 -32 -457 -183 -575 -383 -126 -212 -145 -502 -48
-724 95 -216 271 -379 494 -458 84 -30 97 -32 239 -32 102 -1 166 4 200 13
384 110 634 449 612 831 -10 166 -57 303 -152 435 -163 229 -477 358 -770 318z
m183 -312 c-3 -185 -4 -190 -27 -215 -47 -50 -109 -26 -130 51 -12 41 -15 335
-4 346 3 4 42 7 85 7 l79 0 -3 -189z m-230 71 c-4 -90 -9 -118 -29 -157 -36
-73 -66 -90 -152 -89 -75 0 -207 39 -215 62 -5 15 120 140 183 183 63 43 186
108 204 109 11 0 13 -21 9 -108z m387 87 c80 -30 191 -107 274 -190 39 -40 71
-75 71 -79 0 -4 -26 -17 -57 -28 -187 -68 -296 -52 -349 50 -34 66 -41 268 -8
268 7 0 38 -9 69 -21z m-658 -400 c119 -39 159 -57 182 -82 37 -37 41 -84 12
-111 -40 -36 -88 -32 -257 24 -88 29 -162 54 -165 56 -4 2 4 34 18 71 13 38
26 74 28 81 7 18 18 16 182 -39z m1027 32 c21 -24 45 -87 45 -121 1 -24 -9
-28 -164 -79 -183 -59 -218 -61 -255 -14 -56 71 -8 119 185 184 77 26 147 48
156 48 9 1 24 -8 33 -18z m-1167 -211 c136 -53 212 -128 213 -211 0 -61 -50
-171 -122 -270 -17 -23 -18 -23 -33 -4 -42 56 -97 161 -121 231 -29 86 -47
284 -26 284 6 0 46 -14 89 -30z m1211 -102 c-4 -106 -10 -145 -28 -193 -25
-66 -76 -148 -114 -184 l-24 -23 -26 44 c-141 241 -107 368 124 464 30 13 59
23 64 24 5 0 6 -59 4 -132z m-764 -130 c19 -27 21 -75 4 -114 -7 -16 -43 -73
-81 -126 -37 -53 -74 -113 -82 -132 l-15 -37 -48 27 c-97 55 -112 66 -112 77
0 13 141 199 210 280 34 39 48 47 75 47 24 0 39 -7 49 -22z m353 7 c20 -14
243 -297 243 -308 0 -3 -37 -29 -81 -57 -64 -41 -84 -49 -90 -39 -4 8 -31 46
-59 84 -28 39 -72 111 -97 162 -47 96 -50 124 -17 157 20 20 73 21 101 1z
m-148 -270 c50 -24 191 -151 191 -174 0 -4 -28 -15 -62 -22 -118 -26 -468 -11
-468 19 0 22 72 107 126 150 72 57 131 65 213 27z"/>
</g>
</svg>
