<svg xmlns="http://www.w3.org/2000/svg" xmlns:xlink="http://www.w3.org/1999/xlink" width="196.725" height="60" viewBox="0 0 196.725 60">
  <defs>
    <clipPath id="clip-path">
      <rect width="196.725" height="60" fill="none"/>
    </clipPath>
  </defs>
  <g id="Repeat_Grid_1" data-name="Repeat Grid 1" clip-path="url(#clip-path)">
    <g id="Group_256" data-name="Group 256" transform="translate(-97.871 -21.19)">
      <g id="Group_255" data-name="Group 255">
        <path id="Path_410" data-name="Path 410" d="M112.425,69.825a2.7,2.7,0,0,1-1.017-.421L100.023,58.363q-.822-.777-1.174-1.15a4.21,4.21,0,0,1-.665-.987,2.883,2.883,0,0,1-.313-1.328V53.312a2.839,2.839,0,0,1,.332-1.344,4.3,4.3,0,0,1,.627-.94q.292-.306,1.232-1.181l11.346-11.333a1.584,1.584,0,0,1,.978-.324,1.245,1.245,0,0,1,.959.405,1.41,1.41,0,0,1,.371.987V41.4a3.38,3.38,0,0,1-.039.534c-.026.162-.052.3-.078.421a1.377,1.377,0,0,1-.195.421,2.327,2.327,0,0,0-.2.34,1.608,1.608,0,0,1-.294.356c-.169.173-.268.27-.293.291s-.157.141-.391.356-.366.335-.392.357l-8.763,9.066a.658.658,0,0,0,0,1.166l8.763,8.742q.117.1.392.34t.372.341c.064.064.169.167.312.307a2.686,2.686,0,0,1,.294.324c.051.076.124.183.215.324a1.209,1.209,0,0,1,.176.388c.026.119.052.259.078.421a3.38,3.38,0,0,1,.039.534v2.04a1.367,1.367,0,0,1-.371.955A1.2,1.2,0,0,1,112.425,69.825Z" fill="#ee4036"/>
        <path id="Path_411" data-name="Path 411" d="M123.465,81.158q-.352,0-.352-.842a.734.734,0,0,1,.02-.129.939.939,0,0,0,.019-.162l9.155-57.7q.195-1.134.7-1.134h5.36c.261,0,.392.271.392.81a.982.982,0,0,1-.039.324L129.53,80.057q-.2,1.132-.627,1.133Z" fill="#ee4036"/>
        <path id="Path_412" data-name="Path 412" d="M147.448,74.52a.976.976,0,0,1-.782-.275A2.141,2.141,0,0,1,146.431,73V29.48a2.143,2.143,0,0,1,.235-1.247.979.979,0,0,1,.782-.275h5.674a.982.982,0,0,1,.782.275,2.143,2.143,0,0,1,.235,1.247V46.706a.976.976,0,0,0,.137.518c.09.151.175.227.254.227h11.737c.078,0,.169-.082.274-.243a.969.969,0,0,0,.156-.534V29.48a2.011,2.011,0,0,1,.255-1.23.955.955,0,0,1,.763-.292h5.751a.929.929,0,0,1,.744.275,2.152,2.152,0,0,1,.235,1.247V73a2.149,2.149,0,0,1-.235,1.247.926.926,0,0,1-.744.275h-5.751a1.455,1.455,0,0,1-.548-.081.774.774,0,0,1-.352-.437,2.575,2.575,0,0,1-.156-1V53.214q0-.679-.431-.68h-11.62q-.392,0-.391.68V73a2.013,2.013,0,0,1-.255,1.231.958.958,0,0,1-.762.291Z" fill="#ee4036"/>
        <path id="Path_413" data-name="Path 413" d="M189.116,74.52a.883.883,0,0,1-.724-.308,2.091,2.091,0,0,1-.254-1.246V33.981q0-.81-.43-.81H180.9a2.37,2.37,0,0,1-.567-.048.563.563,0,0,1-.314-.324,2.029,2.029,0,0,1-.137-.858V29.383a1.908,1.908,0,0,1,.236-1.15.977.977,0,0,1,.782-.275h22.105a.925.925,0,0,1,.743.275,1.91,1.91,0,0,1,.235,1.15v2.558a1.566,1.566,0,0,1-.215,1.02,1.087,1.087,0,0,1-.763.21h-6.69q-.432,0-.431.81V72.966a2.091,2.091,0,0,1-.254,1.263.96.96,0,0,1-.763.291Z" fill="#ee4036"/>
        <path id="Path_414" data-name="Path 414" d="M209.618,74.52q-.939,0-.939-1.586v-.162l1.76-42.968q.039-1.781.978-1.846H217.6a1.763,1.763,0,0,1,.979.324,2.006,2.006,0,0,1,.586,1.2l6.613,30.631a.33.33,0,0,0,.136.194.162.162,0,0,0,.2,0,.216.216,0,0,0,.1-.194l6.651-30.534q.351-1.554,1.526-1.619h6.26q.939.064.939,1.846l1.838,42.968v.194q0,1.554-.977,1.554h-4.3q-.939,0-1.018-1.748L235.91,39.517c0-.129-.04-.2-.118-.226s-.131.011-.156.1l-7.121,33.578q-.313,1.554-1.33,1.554h-2.543q-.939,0-1.33-1.554L216.387,39.55c-.027-.129-.079-.151-.157-.065a.39.39,0,0,0-.039.195l-1.252,33.092q0,1.747-.9,1.748Z" fill="#ee4036"/>
        <path id="Path_415" data-name="Path 415" d="M252.733,74.52a.922.922,0,0,1-.743-.275A2.141,2.141,0,0,1,251.755,73V29.48a2.143,2.143,0,0,1,.235-1.247.925.925,0,0,1,.743-.275h5.751a.925.925,0,0,1,.743.275,2.143,2.143,0,0,1,.235,1.247V68.66q0,.711.548.712h10.173a1.042,1.042,0,0,1,.743.227,1.535,1.535,0,0,1,.234,1.036v2.59a1.609,1.609,0,0,1-.234,1.052,1,1,0,0,1-.743.243Z" fill="#ee4036"/>
        <path id="Path_416" data-name="Path 416" d="M280.042,69.825a1.18,1.18,0,0,1-.939-.4,1.5,1.5,0,0,1-.352-1.019V66.619c0-.15.006-.3.02-.436a2.527,2.527,0,0,1,.058-.373,2.084,2.084,0,0,1,.117-.34c.052-.118.1-.216.137-.292a2.237,2.237,0,0,1,.2-.291c.091-.118.157-.205.2-.259s.118-.145.236-.275a2.747,2.747,0,0,1,.254-.259c.051-.043.156-.134.312-.275a3.312,3.312,0,0,0,.314-.308l8.8-9.034a.844.844,0,0,0,.313-.615.651.651,0,0,0-.352-.55l-8.725-8.743a5.273,5.273,0,0,0-.45-.4,4.111,4.111,0,0,1-.431-.389c-.065-.075-.175-.188-.332-.34a1.231,1.231,0,0,1-.293-.372c-.04-.1-.1-.227-.177-.388a1.719,1.719,0,0,1-.156-.5,3.944,3.944,0,0,1-.039-.583V39.517a1.335,1.335,0,0,1,.352-.955,1.237,1.237,0,0,1,.939-.372,1.906,1.906,0,0,1,.978.388L292.4,49.653q.9.842,1.214,1.165a4.392,4.392,0,0,1,.645.939,2.759,2.759,0,0,1,.332,1.327v1.587c0,.173-.007.329-.019.47a1.472,1.472,0,0,1-.118.437,2.834,2.834,0,0,0-.137.373,1.066,1.066,0,0,1-.234.372,1.461,1.461,0,0,0-.235.324,1.692,1.692,0,0,1-.313.372c-.183.184-.293.3-.333.34s-.175.173-.411.389-.378.345-.43.388L281.059,69.469A1.89,1.89,0,0,1,280.042,69.825Z" fill="#ee4036"/>
      </g>
    </g>
  </g>
</svg>
